<svg width="144" height="46" viewBox="0 0 144 46" fill="none" xmlns="http://www.w3.org/2000/svg">
<path d="M47.2157 13.044V13.71H55.2437V13.044H47.2157ZM47.2157 14.934V15.6H55.2437V14.934H47.2157ZM47.2157 11.208V11.838H55.2437V11.208H47.2157ZM52.5617 5.556L54.6137 6.06C54.5057 6.33 54.3797 6.618 54.2357 6.888H59.2037V8.58H56.5397C56.7917 8.868 56.9897 9.138 57.1337 9.372L55.9097 9.912H57.5117V16.878H55.4597V17.958H59.2577V19.686H55.4597V22.584H53.2097V19.686H49.1597C48.6557 20.838 47.3777 21.882 44.5337 22.62C44.2457 22.152 43.6517 21.432 43.1837 21.036C44.9477 20.694 45.9737 20.208 46.5497 19.686H42.9497V17.958H47.2517V16.878H45.0377V9.912H46.8557C46.6937 9.516 46.4057 9.012 46.1357 8.58H45.7577C45.2537 9.264 44.7137 9.876 44.1917 10.344C43.7957 10.002 42.9497 9.426 42.4457 9.156C43.5797 8.292 44.6417 6.924 45.2357 5.556L47.2337 6.114L46.8377 6.888H50.8337V8.31C51.5717 7.536 52.2017 6.546 52.5617 5.556ZM53.2097 17.958V16.878H49.4297V17.958H53.2097ZM51.5177 9.912C51.0497 9.624 50.3837 9.282 49.9697 9.102C50.1857 8.94 50.3837 8.778 50.5817 8.58H48.3497C48.5477 8.904 48.7277 9.228 48.8177 9.48L47.6117 9.912H51.5177ZM52.0757 9.912H55.1537C54.9017 9.498 54.5237 9.012 54.1637 8.58H53.2097C52.8497 9.084 52.4537 9.534 52.0757 9.912ZM70.7237 5.556L72.7757 6.06C72.6497 6.402 72.5237 6.762 72.3617 7.104H77.2577V8.67H74.6837C74.9717 9.048 75.2237 9.444 75.3677 9.75L73.6757 10.434H75.9257V12H68.9417L68.7977 12.594H75.0257V14.124H68.3117L68.0777 14.736H77.2037V16.32H67.3757C67.2137 16.662 67.0337 16.986 66.8357 17.292H71.7857V16.536H73.9277V17.292H76.2317V18.93H73.9277V20.622C73.9277 21.54 73.7837 22.008 73.1357 22.296C72.5417 22.584 71.7497 22.602 70.7417 22.602C70.6517 22.044 70.3457 21.288 70.0937 20.766C70.6517 20.802 71.3177 20.802 71.5157 20.802C71.7137 20.784 71.7857 20.748 71.7857 20.568V18.93H68.3117C68.9057 19.452 69.5537 20.082 69.8777 20.55L68.2757 21.828C67.9157 21.234 67.0697 20.334 66.3677 19.722L67.4117 18.93H66.0977V18.39C65.0897 19.74 63.8657 20.838 62.3537 21.72C62.0477 21.324 61.2377 20.496 60.7697 20.118C62.5877 19.218 63.9737 17.94 65.0177 16.32H60.9317V14.736H65.8637L66.1157 14.124H63.0017V12.594H66.6377L66.7997 12H62.0477V10.632C61.5797 10.344 60.9137 10.02 60.4997 9.858C61.7237 8.832 62.8217 7.194 63.4157 5.556L65.4497 6.078C65.3057 6.42 65.1617 6.762 64.9817 7.104H69.1037V8.49C69.8057 7.68 70.3817 6.618 70.7237 5.556ZM67.3217 9.3L69.2657 9.57L68.5097 9.102L68.9417 8.67H66.7097C66.9077 8.994 67.0697 9.318 67.1597 9.588L65.2697 10.182C65.1437 9.786 64.8557 9.192 64.5497 8.67H64.0997C63.6857 9.318 63.2357 9.93 62.7857 10.434H67.1417L67.3217 9.3ZM69.2837 10.434H73.5317C73.3157 9.948 72.8657 9.246 72.4337 8.67H71.5337C71.1377 9.3 70.7057 9.84 70.2737 10.29C70.0757 10.128 69.7517 9.894 69.4277 9.66L69.2837 10.434ZM85.7177 5.916L87.5357 6.636C86.9417 7.446 86.3657 8.274 85.8977 8.832L84.5297 8.22C84.9257 7.59 85.4297 6.6 85.7177 5.916ZM84.8177 16.716H82.6397L82.0997 17.67L83.5757 18.39C84.0617 17.904 84.4937 17.346 84.8177 16.716ZM79.5257 18.354C79.8497 17.886 80.2097 17.328 80.5517 16.716H79.1657V14.97H81.4517C81.6137 14.61 81.7577 14.268 81.8837 13.926L83.7917 14.268L83.5037 14.97H85.7717L86.0957 14.898L87.2657 15.33C86.8157 16.932 86.1137 18.228 85.1957 19.272C85.6637 19.56 86.1137 19.83 86.4737 20.082L85.1957 21.486C84.8177 21.198 84.3497 20.874 83.8277 20.55C82.6037 21.468 81.1457 22.116 79.5257 22.566C79.3277 22.08 78.9137 21.324 78.5537 20.946C79.8677 20.658 81.0737 20.19 82.0997 19.56C81.2357 19.11 80.3537 18.678 79.5257 18.354ZM79.2917 6.654L80.8397 6.006C81.3077 6.69 81.7757 7.608 81.9197 8.256L80.4257 8.904H82.2797V5.7H84.2777V8.904H87.6977V10.596H85.0517C85.8797 11.064 86.8697 11.658 87.1937 11.892L86.0597 13.386C85.6637 13.008 84.9617 12.414 84.2777 11.874V13.818H82.2797V12.216C81.4517 13.044 80.4977 13.782 79.5977 14.286C79.3457 13.8 78.8777 13.098 78.4817 12.702C79.5437 12.27 80.6957 11.478 81.5237 10.596H78.8597V8.904H80.2817C80.1557 8.292 79.7237 7.356 79.2917 6.654ZM89.1017 5.754L91.0817 6.042C90.9377 7.068 90.7397 8.058 90.5237 9.03H95.3477V11.028H94.2137C93.8717 13.566 93.3317 15.69 92.4677 17.472C93.3137 18.876 94.3937 20.01 95.7617 20.766C95.2937 21.144 94.6637 21.918 94.3577 22.458C93.1157 21.684 92.1077 20.64 91.2977 19.398C90.2897 20.748 88.9757 21.828 87.2837 22.692C87.1037 22.26 86.5277 21.36 86.1677 20.946C87.9857 20.118 89.2997 18.984 90.2357 17.472C89.7137 16.338 89.2997 15.06 88.9577 13.692C88.6697 14.286 88.3457 14.826 88.0037 15.312C87.6977 14.952 86.8877 14.25 86.4557 13.944C87.8957 12.072 88.7057 8.994 89.1017 5.754ZM92.1977 11.028H90.2357C90.4877 12.486 90.8477 13.854 91.3337 15.114C91.7477 13.926 92.0177 12.558 92.1977 11.028ZM107.732 8.922V11.982H110.468V8.922H107.732ZM105.716 7.032H112.61V13.89H105.716V7.032ZM101.378 19.236V20.28H108.848V19.236H101.378ZM101.378 17.67H108.848V16.662H101.378V17.67ZM99.2717 14.97H111.062V22.584H108.848V22.008H101.378V22.602H99.2717V14.97ZM100.298 8.742H99.3977C99.1277 9.174 98.8577 9.57 98.5697 9.912H100.28L100.298 9.516V8.742ZM98.6597 5.592L100.568 5.988C100.478 6.348 100.352 6.708 100.208 7.068H104.69V8.742H102.35V9.552L102.332 9.912H105.122V11.604H102.134C102.908 11.982 104.708 13.008 105.176 13.332L103.646 14.7C103.124 14.25 102.134 13.512 101.324 12.936C100.676 13.872 99.6317 14.772 97.9937 15.528C97.7057 15.096 97.0937 14.448 96.6257 14.088C98.4617 13.386 99.3797 12.486 99.8477 11.604H96.8417V9.912H98.0657C97.6337 9.624 97.0397 9.282 96.6797 9.12C97.6157 8.256 98.2997 6.942 98.6597 5.592Z" fill="white"/>
<path d="M46.0978 34.1001H47.7094C49.3042 34.1001 50.1772 33.4286 50.1772 32.1024C50.1772 30.7594 49.3042 30.3061 47.7094 30.3061H46.0978V34.1001ZM50.3786 40.7646L47.8269 36.0642H46.0978V40.7646H43.6133V28.3252H47.9277C50.5465 28.3252 52.6113 29.2485 52.6113 32.1024C52.6113 33.9658 51.6712 35.1241 50.2443 35.6781L53.1485 40.7646H50.3786ZM58.5863 40.9997C56.2193 40.9997 54.0705 39.1866 54.0705 36.0642C54.0705 32.9418 56.2193 31.1287 58.5863 31.1287C60.9365 31.1287 63.1021 32.9418 63.1021 36.0642C63.1021 39.1866 60.9365 40.9997 58.5863 40.9997ZM58.5863 38.9852C59.8621 38.9852 60.584 37.8437 60.584 36.0642C60.584 34.3015 59.8621 33.1432 58.5863 33.1432C57.2937 33.1432 56.5886 34.3015 56.5886 36.0642C56.5886 37.8437 57.2937 38.9852 58.5863 38.9852ZM68.4736 40.9997C66.1234 40.9997 64.6293 39.1531 64.6293 36.0642C64.6293 33.0089 66.5599 31.1287 68.5744 31.1287C69.632 31.1287 70.2867 31.5316 70.9582 32.1528L70.8742 30.6755V27.3684H73.342V40.7646H71.3275L71.1428 39.791H71.0757C70.3874 40.4793 69.4473 40.9997 68.4736 40.9997ZM69.1116 38.9684C69.7663 38.9684 70.337 38.6998 70.8742 37.9947V33.8651C70.3035 33.3447 69.7159 33.16 69.1116 33.16C68.0539 33.16 67.1642 34.1672 67.1642 36.0306C67.1642 37.9947 67.8693 38.9684 69.1116 38.9684ZM81.2245 40.9997C78.1021 40.9997 75.5504 38.7502 75.5504 34.6037C75.5504 30.5076 78.186 28.107 81.3252 28.107C82.92 28.107 84.1623 28.8624 84.9681 29.7018L83.6755 31.2798C83.0376 30.6755 82.3157 30.239 81.3756 30.239C79.4954 30.239 78.1021 31.8506 78.1021 34.5198C78.1021 37.2225 79.3611 38.8509 81.3252 38.8509C82.3996 38.8509 83.2222 38.3473 83.8769 37.6254L85.2031 39.1699C84.1791 40.3618 82.8529 40.9997 81.2245 40.9997ZM90.915 40.9997C88.548 40.9997 86.3992 39.1866 86.3992 36.0642C86.3992 32.9418 88.548 31.1287 90.915 31.1287C93.2652 31.1287 95.4308 32.9418 95.4308 36.0642C95.4308 39.1866 93.2652 40.9997 90.915 40.9997ZM90.915 38.9852C92.1908 38.9852 92.9127 37.8437 92.9127 36.0642C92.9127 34.3015 92.1908 33.1432 90.915 33.1432C89.6224 33.1432 88.9173 34.3015 88.9173 36.0642C88.9173 37.8437 89.6224 38.9852 90.915 38.9852ZM100.299 40.9997C98.2675 40.9997 97.3945 39.5895 97.3945 37.2225V31.3637H99.8455V36.9204C99.8455 38.3808 100.265 38.8845 101.188 38.8845C101.944 38.8845 102.448 38.5487 103.085 37.7094V31.3637H105.553V40.7646H103.539L103.354 39.4049H103.287C102.481 40.3618 101.591 40.9997 100.299 40.9997ZM108.184 40.7646V31.3637H110.199L110.383 32.606H110.434C111.256 31.8002 112.213 31.1287 113.489 31.1287C115.52 31.1287 116.393 32.5389 116.393 34.9059V40.7646H113.925V35.208C113.925 33.7475 113.522 33.2439 112.599 33.2439C111.844 33.2439 111.34 33.6132 110.652 34.3015V40.7646H108.184ZM122.38 40.9997C120.147 40.9997 119.291 39.5727 119.291 37.4911V33.3111H117.965V31.4813L119.425 31.3637L119.711 28.8289H121.742V31.3637H124.075V33.3111H121.742V37.4743C121.742 38.5487 122.195 39.0523 123.035 39.0523C123.337 39.0523 123.706 38.9516 123.958 38.8509L124.378 40.6471C123.857 40.7982 123.202 40.9997 122.38 40.9997ZM126.206 40.7646V28.3252H129.613C133.424 28.3252 135.758 30.3061 135.758 34.4862C135.758 38.683 133.424 40.7646 129.748 40.7646H126.206ZM128.69 38.7502H129.446C131.779 38.7502 133.223 37.5079 133.223 34.4862C133.223 31.4645 131.779 30.3229 129.446 30.3229H128.69V38.7502ZM138.19 40.7646V28.3252H140.674V40.7646H138.19Z" fill="white"/>
<path d="M28.4336 12.8494L21.2462 24.0333L15.9228 20.6054L21.5148 11.9174L10.2203 11.9806L10.1887 5.66199L25.1638 5.58301L27.5174 10.7958L28.0071 11.8858L28.4336 12.8494Z" fill="white"/>
<path d="M6.31858 5.64648H0V40.9358H6.31858V5.64648Z" fill="white"/>
<path d="M28.6863 33.432V40.9353H28.6705L15.9228 32.6895V25.1704L17.8341 26.4025L18.9083 27.0976L28.6863 33.432Z" fill="white"/>
</svg>
